<mxfile host="Electron" modified="2023-06-27T11:06:23.261Z" agent="Mozilla/5.0 (X11; Linux x86_64) AppleWebKit/537.36 (KHTML, like Gecko) draw.io/21.3.7 Chrome/112.0.5615.204 Electron/24.5.0 Safari/537.36" etag="VWECENYv2huNgg4Tyms2" version="21.3.7" type="device" pages="3">
  <diagram id="C5RBs43oDa-KdzZeNtuy" name="DB">
    <mxGraphModel dx="880" dy="1691" grid="1" gridSize="10" guides="1" tooltips="1" connect="1" arrows="1" fold="1" page="1" pageScale="1" pageWidth="827" pageHeight="1169" math="0" shadow="0">
      <root>
        <mxCell id="WIyWlLk6GJQsqaUBKTNV-0" />
        <mxCell id="WIyWlLk6GJQsqaUBKTNV-1" parent="WIyWlLk6GJQsqaUBKTNV-0" />
        <object label="Car" Model="" id="6KoRJtlXG5ZK2ZdyG5nD-9">
          <mxCell style="swimlane;fontStyle=1;align=center;verticalAlign=top;childLayout=stackLayout;horizontal=1;startSize=26;horizontalStack=0;resizeParent=1;resizeParentMax=0;resizeLast=0;collapsible=1;marginBottom=0;whiteSpace=wrap;html=1;" vertex="1" parent="WIyWlLk6GJQsqaUBKTNV-1">
            <mxGeometry x="250.5" y="40" width="179" height="156" as="geometry">
              <mxRectangle x="201" y="170" width="60" height="30" as="alternateBounds" />
            </mxGeometry>
          </mxCell>
        </object>
        <mxCell id="6KoRJtlXG5ZK2ZdyG5nD-10" value="+ Number: String Primary Key" style="text;strokeColor=none;fillColor=none;align=left;verticalAlign=top;spacingLeft=4;spacingRight=4;overflow=hidden;rotatable=0;points=[[0,0.5],[1,0.5]];portConstraint=eastwest;whiteSpace=wrap;html=1;" vertex="1" parent="6KoRJtlXG5ZK2ZdyG5nD-9">
          <mxGeometry y="26" width="179" height="44" as="geometry" />
        </mxCell>
        <mxCell id="6KoRJtlXG5ZK2ZdyG5nD-11" value="" style="line;strokeWidth=1;fillColor=none;align=left;verticalAlign=middle;spacingTop=-1;spacingLeft=3;spacingRight=3;rotatable=0;labelPosition=right;points=[];portConstraint=eastwest;strokeColor=inherit;" vertex="1" parent="6KoRJtlXG5ZK2ZdyG5nD-9">
          <mxGeometry y="70" width="179" height="8" as="geometry" />
        </mxCell>
        <mxCell id="6KoRJtlXG5ZK2ZdyG5nD-12" value="+ Model: String" style="text;strokeColor=none;fillColor=none;align=left;verticalAlign=top;spacingLeft=4;spacingRight=4;overflow=hidden;rotatable=0;points=[[0,0.5],[1,0.5]];portConstraint=eastwest;whiteSpace=wrap;html=1;" vertex="1" parent="6KoRJtlXG5ZK2ZdyG5nD-9">
          <mxGeometry y="78" width="179" height="26" as="geometry" />
        </mxCell>
        <mxCell id="6KoRJtlXG5ZK2ZdyG5nD-13" value="+ Release year: Integer" style="text;strokeColor=none;fillColor=none;align=left;verticalAlign=top;spacingLeft=4;spacingRight=4;overflow=hidden;rotatable=0;points=[[0,0.5],[1,0.5]];portConstraint=eastwest;whiteSpace=wrap;html=1;" vertex="1" parent="6KoRJtlXG5ZK2ZdyG5nD-9">
          <mxGeometry y="104" width="179" height="26" as="geometry" />
        </mxCell>
        <mxCell id="6KoRJtlXG5ZK2ZdyG5nD-14" value="+ Mileage: Integer" style="text;strokeColor=none;fillColor=none;align=left;verticalAlign=top;spacingLeft=4;spacingRight=4;overflow=hidden;rotatable=0;points=[[0,0.5],[1,0.5]];portConstraint=eastwest;whiteSpace=wrap;html=1;" vertex="1" parent="6KoRJtlXG5ZK2ZdyG5nD-9">
          <mxGeometry y="130" width="179" height="26" as="geometry" />
        </mxCell>
        <mxCell id="6KoRJtlXG5ZK2ZdyG5nD-25" value="Data base Entities" style="text;html=1;strokeColor=none;fillColor=none;align=center;verticalAlign=middle;whiteSpace=wrap;rounded=0;fontSize=32;" vertex="1" parent="WIyWlLk6GJQsqaUBKTNV-1">
          <mxGeometry x="120" y="-40" width="440" height="30" as="geometry" />
        </mxCell>
      </root>
    </mxGraphModel>
  </diagram>
  <diagram id="jay0Xpbv0Jzq_bZzfCNQ" name="UseCase">
    <mxGraphModel dx="607" dy="360" grid="1" gridSize="10" guides="1" tooltips="1" connect="1" arrows="1" fold="1" page="1" pageScale="1" pageWidth="827" pageHeight="1169" math="0" shadow="0">
      <root>
        <mxCell id="0" />
        <mxCell id="1" parent="0" />
        <mxCell id="pHDtH-ba8LbmGPesV-XA-3" style="edgeStyle=orthogonalEdgeStyle;rounded=0;orthogonalLoop=1;jettySize=auto;html=1;entryX=1;entryY=0.5;entryDx=0;entryDy=0;exitX=0.5;exitY=0.5;exitDx=0;exitDy=0;exitPerimeter=0;" edge="1" parent="1" source="LyeknuXE4W2TaVSuMc4g-1" target="LyeknuXE4W2TaVSuMc4g-2">
          <mxGeometry relative="1" as="geometry" />
        </mxCell>
        <mxCell id="pHDtH-ba8LbmGPesV-XA-4" style="edgeStyle=orthogonalEdgeStyle;rounded=0;orthogonalLoop=1;jettySize=auto;html=1;exitX=0.5;exitY=0.5;exitDx=0;exitDy=0;exitPerimeter=0;entryX=1;entryY=1;entryDx=0;entryDy=0;" edge="1" parent="1" source="LyeknuXE4W2TaVSuMc4g-1" target="LyeknuXE4W2TaVSuMc4g-3">
          <mxGeometry relative="1" as="geometry">
            <Array as="points">
              <mxPoint x="435" y="220" />
              <mxPoint x="387" y="220" />
            </Array>
          </mxGeometry>
        </mxCell>
        <mxCell id="pHDtH-ba8LbmGPesV-XA-5" style="edgeStyle=orthogonalEdgeStyle;rounded=0;orthogonalLoop=1;jettySize=auto;html=1;exitX=1;exitY=0.3333333333333333;exitDx=0;exitDy=0;exitPerimeter=0;entryX=0;entryY=1;entryDx=0;entryDy=0;" edge="1" parent="1" source="LyeknuXE4W2TaVSuMc4g-1" target="kBA01wD4Ec35lw46Y3PW-1">
          <mxGeometry relative="1" as="geometry" />
        </mxCell>
        <mxCell id="pHDtH-ba8LbmGPesV-XA-6" style="edgeStyle=orthogonalEdgeStyle;rounded=0;orthogonalLoop=1;jettySize=auto;html=1;exitX=0.5;exitY=0.5;exitDx=0;exitDy=0;exitPerimeter=0;entryX=0;entryY=0.5;entryDx=0;entryDy=0;" edge="1" parent="1" source="LyeknuXE4W2TaVSuMc4g-1" target="kBA01wD4Ec35lw46Y3PW-2">
          <mxGeometry relative="1" as="geometry" />
        </mxCell>
        <mxCell id="pHDtH-ba8LbmGPesV-XA-7" style="edgeStyle=orthogonalEdgeStyle;rounded=0;orthogonalLoop=1;jettySize=auto;html=1;exitX=0.5;exitY=0.5;exitDx=0;exitDy=0;exitPerimeter=0;entryX=0;entryY=0;entryDx=0;entryDy=0;" edge="1" parent="1" source="LyeknuXE4W2TaVSuMc4g-1" target="kBA01wD4Ec35lw46Y3PW-3">
          <mxGeometry relative="1" as="geometry" />
        </mxCell>
        <mxCell id="pHDtH-ba8LbmGPesV-XA-8" style="edgeStyle=orthogonalEdgeStyle;rounded=0;orthogonalLoop=1;jettySize=auto;html=1;exitX=0.5;exitY=0.5;exitDx=0;exitDy=0;exitPerimeter=0;entryX=1;entryY=0;entryDx=0;entryDy=0;" edge="1" parent="1" source="LyeknuXE4W2TaVSuMc4g-1" target="kBA01wD4Ec35lw46Y3PW-4">
          <mxGeometry relative="1" as="geometry" />
        </mxCell>
        <mxCell id="LyeknuXE4W2TaVSuMc4g-1" value="User" style="shape=umlActor;verticalLabelPosition=bottom;verticalAlign=top;html=1;" vertex="1" parent="1">
          <mxGeometry x="420" y="200" width="30" height="60" as="geometry" />
        </mxCell>
        <mxCell id="LyeknuXE4W2TaVSuMc4g-2" value="View cars" style="ellipse;whiteSpace=wrap;html=1;" vertex="1" parent="1">
          <mxGeometry x="200" y="165" width="80" height="60" as="geometry" />
        </mxCell>
        <mxCell id="LyeknuXE4W2TaVSuMc4g-3" value="Search car by number" style="ellipse;whiteSpace=wrap;html=1;" vertex="1" parent="1">
          <mxGeometry x="313" y="50" width="86" height="70" as="geometry" />
        </mxCell>
        <mxCell id="kBA01wD4Ec35lw46Y3PW-1" value="Sort cars by number" style="ellipse;whiteSpace=wrap;html=1;" vertex="1" parent="1">
          <mxGeometry x="480" y="50" width="80" height="70" as="geometry" />
        </mxCell>
        <mxCell id="kBA01wD4Ec35lw46Y3PW-2" value="Sort cars by model" style="ellipse;whiteSpace=wrap;html=1;" vertex="1" parent="1">
          <mxGeometry x="560" y="160" width="86" height="70" as="geometry" />
        </mxCell>
        <mxCell id="kBA01wD4Ec35lw46Y3PW-3" value="Sort cars by release year" style="ellipse;whiteSpace=wrap;html=1;" vertex="1" parent="1">
          <mxGeometry x="480" y="360" width="86" height="70" as="geometry" />
        </mxCell>
        <mxCell id="kBA01wD4Ec35lw46Y3PW-4" value="Sort cars by milage" style="ellipse;whiteSpace=wrap;html=1;" vertex="1" parent="1">
          <mxGeometry x="313" y="360" width="86" height="70" as="geometry" />
        </mxCell>
      </root>
    </mxGraphModel>
  </diagram>
  <diagram id="MqzbVXYvhenxC7S2uzEk" name="Architecture">
    <mxGraphModel dx="926" dy="549" grid="1" gridSize="10" guides="1" tooltips="1" connect="1" arrows="1" fold="1" page="1" pageScale="1" pageWidth="827" pageHeight="1169" math="0" shadow="0">
      <root>
        <mxCell id="0" />
        <mxCell id="1" parent="0" />
        <mxCell id="YiN0nY_S8RLQTl-dxrAz-8" value="Room DB" style="html=1;whiteSpace=wrap;" vertex="1" parent="1">
          <mxGeometry x="320" y="70" width="160" height="50" as="geometry" />
        </mxCell>
        <mxCell id="YiN0nY_S8RLQTl-dxrAz-9" value="CarsLocalDataSource" style="html=1;whiteSpace=wrap;" vertex="1" parent="1">
          <mxGeometry x="320" y="200" width="160" height="50" as="geometry" />
        </mxCell>
        <mxCell id="YiN0nY_S8RLQTl-dxrAz-10" value="CarsRepository" style="html=1;whiteSpace=wrap;" vertex="1" parent="1">
          <mxGeometry x="320" y="330" width="160" height="50" as="geometry" />
        </mxCell>
        <mxCell id="YiN0nY_S8RLQTl-dxrAz-11" value="UseCase" style="html=1;whiteSpace=wrap;" vertex="1" parent="1">
          <mxGeometry x="320" y="590" width="160" height="50" as="geometry" />
        </mxCell>
        <mxCell id="YiN0nY_S8RLQTl-dxrAz-12" value="ViewModel" style="html=1;whiteSpace=wrap;" vertex="1" parent="1">
          <mxGeometry x="320" y="720" width="160" height="50" as="geometry" />
        </mxCell>
        <mxCell id="YiN0nY_S8RLQTl-dxrAz-13" value="Activity/Fragment" style="html=1;whiteSpace=wrap;" vertex="1" parent="1">
          <mxGeometry x="320" y="850" width="160" height="50" as="geometry" />
        </mxCell>
        <mxCell id="YiN0nY_S8RLQTl-dxrAz-15" value="" style="endArrow=open;endFill=1;endSize=12;html=1;rounded=0;entryX=0.1;entryY=1.004;entryDx=0;entryDy=0;entryPerimeter=0;exitX=0.104;exitY=0;exitDx=0;exitDy=0;exitPerimeter=0;" edge="1" parent="1" source="YiN0nY_S8RLQTl-dxrAz-13" target="YiN0nY_S8RLQTl-dxrAz-12">
          <mxGeometry width="160" relative="1" as="geometry">
            <mxPoint x="360" y="850" as="sourcePoint" />
            <mxPoint x="360" y="790" as="targetPoint" />
            <Array as="points" />
          </mxGeometry>
        </mxCell>
        <mxCell id="YiN0nY_S8RLQTl-dxrAz-16" value="Delegate execute&lt;br&gt;non-UI logic" style="edgeLabel;html=1;align=center;verticalAlign=middle;resizable=0;points=[];" vertex="1" connectable="0" parent="YiN0nY_S8RLQTl-dxrAz-15">
          <mxGeometry x="0.55" y="1" relative="1" as="geometry">
            <mxPoint x="1" y="22" as="offset" />
          </mxGeometry>
        </mxCell>
        <mxCell id="YiN0nY_S8RLQTl-dxrAz-17" value="" style="endArrow=open;endFill=1;endSize=12;html=1;rounded=0;exitX=0.902;exitY=1.001;exitDx=0;exitDy=0;exitPerimeter=0;entryX=0.895;entryY=0;entryDx=0;entryDy=0;entryPerimeter=0;" edge="1" parent="1" source="YiN0nY_S8RLQTl-dxrAz-12" target="YiN0nY_S8RLQTl-dxrAz-13">
          <mxGeometry width="160" relative="1" as="geometry">
            <mxPoint x="650" y="790" as="sourcePoint" />
            <mxPoint x="490" y="790" as="targetPoint" />
          </mxGeometry>
        </mxCell>
        <mxCell id="YiN0nY_S8RLQTl-dxrAz-18" value="Provide&lt;br&gt;&amp;nbsp;observers" style="edgeLabel;html=1;align=center;verticalAlign=middle;resizable=0;points=[];" vertex="1" connectable="0" parent="YiN0nY_S8RLQTl-dxrAz-17">
          <mxGeometry x="0.3802" relative="1" as="geometry">
            <mxPoint y="-15" as="offset" />
          </mxGeometry>
        </mxCell>
        <mxCell id="YiN0nY_S8RLQTl-dxrAz-19" value="" style="endArrow=open;endFill=1;endSize=12;html=1;rounded=0;entryX=0.097;entryY=1.002;entryDx=0;entryDy=0;entryPerimeter=0;exitX=0.097;exitY=-0.002;exitDx=0;exitDy=0;exitPerimeter=0;" edge="1" parent="1" source="YiN0nY_S8RLQTl-dxrAz-12" target="YiN0nY_S8RLQTl-dxrAz-11">
          <mxGeometry width="160" relative="1" as="geometry">
            <mxPoint x="331" y="720" as="sourcePoint" />
            <mxPoint x="330" y="640" as="targetPoint" />
            <Array as="points" />
          </mxGeometry>
        </mxCell>
        <mxCell id="YiN0nY_S8RLQTl-dxrAz-20" value="Delegate execute&lt;br&gt;non-presenter logic" style="edgeLabel;html=1;align=center;verticalAlign=middle;resizable=0;points=[];" vertex="1" connectable="0" parent="YiN0nY_S8RLQTl-dxrAz-19">
          <mxGeometry x="0.55" y="1" relative="1" as="geometry">
            <mxPoint x="1" y="22" as="offset" />
          </mxGeometry>
        </mxCell>
        <mxCell id="YiN0nY_S8RLQTl-dxrAz-21" value="" style="endArrow=open;endFill=1;endSize=12;html=1;rounded=0;exitX=0.899;exitY=1.003;exitDx=0;exitDy=0;exitPerimeter=0;entryX=0.895;entryY=0;entryDx=0;entryDy=0;entryPerimeter=0;" edge="1" parent="1" source="YiN0nY_S8RLQTl-dxrAz-11" target="YiN0nY_S8RLQTl-dxrAz-12">
          <mxGeometry width="160" relative="1" as="geometry">
            <mxPoint x="461" y="640" as="sourcePoint" />
            <mxPoint x="460" y="720" as="targetPoint" />
          </mxGeometry>
        </mxCell>
        <mxCell id="YiN0nY_S8RLQTl-dxrAz-22" value="Provide data" style="edgeLabel;html=1;align=center;verticalAlign=middle;resizable=0;points=[];" vertex="1" connectable="0" parent="YiN0nY_S8RLQTl-dxrAz-21">
          <mxGeometry x="0.3802" relative="1" as="geometry">
            <mxPoint y="-15" as="offset" />
          </mxGeometry>
        </mxCell>
        <mxCell id="YiN0nY_S8RLQTl-dxrAz-24" value="Presentation layer" style="text;html=1;strokeColor=none;fillColor=none;align=center;verticalAlign=middle;whiteSpace=wrap;rounded=0;direction=south;fontStyle=1;fontSize=12;" vertex="1" parent="1">
          <mxGeometry x="200" y="700" width="80" height="230" as="geometry" />
        </mxCell>
        <mxCell id="YiN0nY_S8RLQTl-dxrAz-25" value="" style="endArrow=none;html=1;rounded=0;" edge="1" parent="1">
          <mxGeometry width="50" height="50" relative="1" as="geometry">
            <mxPoint x="160" y="930" as="sourcePoint" />
            <mxPoint x="160" y="700" as="targetPoint" />
          </mxGeometry>
        </mxCell>
        <mxCell id="YiN0nY_S8RLQTl-dxrAz-27" value="" style="endArrow=none;html=1;rounded=0;" edge="1" parent="1">
          <mxGeometry width="50" height="50" relative="1" as="geometry">
            <mxPoint x="640" y="930" as="sourcePoint" />
            <mxPoint x="640" y="700" as="targetPoint" />
          </mxGeometry>
        </mxCell>
        <mxCell id="YiN0nY_S8RLQTl-dxrAz-28" value="" style="endArrow=none;html=1;rounded=0;" edge="1" parent="1">
          <mxGeometry width="50" height="50" relative="1" as="geometry">
            <mxPoint x="160" y="930" as="sourcePoint" />
            <mxPoint x="640" y="930" as="targetPoint" />
          </mxGeometry>
        </mxCell>
        <mxCell id="YiN0nY_S8RLQTl-dxrAz-29" value="" style="endArrow=none;html=1;rounded=0;" edge="1" parent="1">
          <mxGeometry width="50" height="50" relative="1" as="geometry">
            <mxPoint x="160" y="700" as="sourcePoint" />
            <mxPoint x="640" y="700" as="targetPoint" />
          </mxGeometry>
        </mxCell>
        <mxCell id="YiN0nY_S8RLQTl-dxrAz-30" value="ICarsRepository" style="html=1;whiteSpace=wrap;" vertex="1" parent="1">
          <mxGeometry x="320" y="460" width="160" height="50" as="geometry" />
        </mxCell>
        <mxCell id="YiN0nY_S8RLQTl-dxrAz-31" value="" style="endArrow=none;html=1;rounded=0;" edge="1" parent="1">
          <mxGeometry width="50" height="50" relative="1" as="geometry">
            <mxPoint x="160" y="660" as="sourcePoint" />
            <mxPoint x="640" y="660" as="targetPoint" />
          </mxGeometry>
        </mxCell>
        <mxCell id="YiN0nY_S8RLQTl-dxrAz-32" value="" style="endArrow=none;html=1;rounded=0;" edge="1" parent="1">
          <mxGeometry width="50" height="50" relative="1" as="geometry">
            <mxPoint x="160" y="660" as="sourcePoint" />
            <mxPoint x="160" y="430" as="targetPoint" />
          </mxGeometry>
        </mxCell>
        <mxCell id="YiN0nY_S8RLQTl-dxrAz-33" value="" style="endArrow=none;html=1;rounded=0;" edge="1" parent="1">
          <mxGeometry width="50" height="50" relative="1" as="geometry">
            <mxPoint x="640" y="660" as="sourcePoint" />
            <mxPoint x="640" y="430" as="targetPoint" />
          </mxGeometry>
        </mxCell>
        <mxCell id="YiN0nY_S8RLQTl-dxrAz-34" value="" style="endArrow=none;html=1;rounded=0;" edge="1" parent="1">
          <mxGeometry width="50" height="50" relative="1" as="geometry">
            <mxPoint x="160" y="430" as="sourcePoint" />
            <mxPoint x="640" y="430" as="targetPoint" />
          </mxGeometry>
        </mxCell>
        <mxCell id="YiN0nY_S8RLQTl-dxrAz-35" value="" style="endArrow=block;dashed=1;endFill=0;endSize=12;html=1;rounded=0;exitX=0.5;exitY=1;exitDx=0;exitDy=0;entryX=0.5;entryY=0;entryDx=0;entryDy=0;" edge="1" parent="1" source="YiN0nY_S8RLQTl-dxrAz-10" target="YiN0nY_S8RLQTl-dxrAz-30">
          <mxGeometry width="160" relative="1" as="geometry">
            <mxPoint x="230" y="500" as="sourcePoint" />
            <mxPoint x="390" y="500" as="targetPoint" />
          </mxGeometry>
        </mxCell>
        <mxCell id="YiN0nY_S8RLQTl-dxrAz-36" value="" style="endArrow=open;endFill=1;endSize=12;html=1;rounded=0;entryX=0.095;entryY=0.999;entryDx=0;entryDy=0;entryPerimeter=0;exitX=0.095;exitY=-0.001;exitDx=0;exitDy=0;exitPerimeter=0;" edge="1" parent="1" source="YiN0nY_S8RLQTl-dxrAz-11" target="YiN0nY_S8RLQTl-dxrAz-30">
          <mxGeometry width="160" relative="1" as="geometry">
            <mxPoint x="340" y="590" as="sourcePoint" />
            <mxPoint x="340" y="510" as="targetPoint" />
            <Array as="points" />
          </mxGeometry>
        </mxCell>
        <mxCell id="YiN0nY_S8RLQTl-dxrAz-37" value="Delegate execute&lt;br&gt;data-related logic" style="edgeLabel;html=1;align=center;verticalAlign=middle;resizable=0;points=[];" vertex="1" connectable="0" parent="YiN0nY_S8RLQTl-dxrAz-36">
          <mxGeometry x="0.55" y="1" relative="1" as="geometry">
            <mxPoint x="1" y="22" as="offset" />
          </mxGeometry>
        </mxCell>
        <mxCell id="YiN0nY_S8RLQTl-dxrAz-38" value="" style="endArrow=open;endFill=1;endSize=12;html=1;rounded=0;exitX=0.897;exitY=1.002;exitDx=0;exitDy=0;exitPerimeter=0;entryX=0.897;entryY=0.002;entryDx=0;entryDy=0;entryPerimeter=0;" edge="1" parent="1" source="YiN0nY_S8RLQTl-dxrAz-30" target="YiN0nY_S8RLQTl-dxrAz-11">
          <mxGeometry width="160" relative="1" as="geometry">
            <mxPoint x="461" y="510" as="sourcePoint" />
            <mxPoint x="460" y="590" as="targetPoint" />
          </mxGeometry>
        </mxCell>
        <mxCell id="YiN0nY_S8RLQTl-dxrAz-39" value="Provide data" style="edgeLabel;html=1;align=center;verticalAlign=middle;resizable=0;points=[];" vertex="1" connectable="0" parent="YiN0nY_S8RLQTl-dxrAz-38">
          <mxGeometry x="0.3802" relative="1" as="geometry">
            <mxPoint y="-15" as="offset" />
          </mxGeometry>
        </mxCell>
        <mxCell id="YiN0nY_S8RLQTl-dxrAz-40" value="Inject" style="endArrow=open;endSize=12;dashed=1;html=1;rounded=0;exitX=0.5;exitY=0;exitDx=0;exitDy=0;entryX=0.5;entryY=0;entryDx=0;entryDy=0;" edge="1" parent="1" target="YiN0nY_S8RLQTl-dxrAz-11">
          <mxGeometry width="160" relative="1" as="geometry">
            <mxPoint x="399.62" y="510" as="sourcePoint" />
            <mxPoint x="399.62" y="630" as="targetPoint" />
          </mxGeometry>
        </mxCell>
        <mxCell id="YiN0nY_S8RLQTl-dxrAz-42" value="Inject" style="endArrow=open;endSize=12;dashed=1;html=1;rounded=0;exitX=0.5;exitY=0;exitDx=0;exitDy=0;entryX=0.5;entryY=0;entryDx=0;entryDy=0;" edge="1" parent="1">
          <mxGeometry width="160" relative="1" as="geometry">
            <mxPoint x="399.62" y="640" as="sourcePoint" />
            <mxPoint x="400" y="720" as="targetPoint" />
          </mxGeometry>
        </mxCell>
        <mxCell id="YiN0nY_S8RLQTl-dxrAz-43" value="Use" style="endArrow=open;endSize=12;dashed=1;html=1;rounded=0;exitX=0.5;exitY=0;exitDx=0;exitDy=0;entryX=0.5;entryY=0;entryDx=0;entryDy=0;" edge="1" parent="1">
          <mxGeometry width="160" relative="1" as="geometry">
            <mxPoint x="400" y="850" as="sourcePoint" />
            <mxPoint x="399.62" y="770" as="targetPoint" />
          </mxGeometry>
        </mxCell>
        <mxCell id="YiN0nY_S8RLQTl-dxrAz-44" value="Domain&lt;br&gt;layer" style="text;html=1;strokeColor=none;fillColor=none;align=center;verticalAlign=middle;whiteSpace=wrap;rounded=0;direction=south;fontStyle=1;fontSize=12;" vertex="1" parent="1">
          <mxGeometry x="200" y="430" width="80" height="230" as="geometry" />
        </mxCell>
        <mxCell id="YiN0nY_S8RLQTl-dxrAz-45" value="" style="endArrow=open;endFill=1;endSize=12;html=1;rounded=0;exitX=0.9;exitY=1.005;exitDx=0;exitDy=0;exitPerimeter=0;entryX=0.901;entryY=-0.029;entryDx=0;entryDy=0;entryPerimeter=0;" edge="1" parent="1" source="YiN0nY_S8RLQTl-dxrAz-9" target="YiN0nY_S8RLQTl-dxrAz-10">
          <mxGeometry width="160" relative="1" as="geometry">
            <mxPoint x="450" y="250" as="sourcePoint" />
            <mxPoint x="450" y="330" as="targetPoint" />
          </mxGeometry>
        </mxCell>
        <mxCell id="YiN0nY_S8RLQTl-dxrAz-46" value="Provide data" style="edgeLabel;html=1;align=center;verticalAlign=middle;resizable=0;points=[];" vertex="1" connectable="0" parent="YiN0nY_S8RLQTl-dxrAz-45">
          <mxGeometry x="0.3802" relative="1" as="geometry">
            <mxPoint y="-15" as="offset" />
          </mxGeometry>
        </mxCell>
        <mxCell id="YiN0nY_S8RLQTl-dxrAz-47" value="" style="endArrow=open;endFill=1;endSize=12;html=1;rounded=0;entryX=0.095;entryY=1.003;entryDx=0;entryDy=0;entryPerimeter=0;exitX=0.098;exitY=-0.008;exitDx=0;exitDy=0;exitPerimeter=0;" edge="1" parent="1" source="YiN0nY_S8RLQTl-dxrAz-10" target="YiN0nY_S8RLQTl-dxrAz-9">
          <mxGeometry width="160" relative="1" as="geometry">
            <mxPoint x="340" y="330" as="sourcePoint" />
            <mxPoint x="340" y="250" as="targetPoint" />
            <Array as="points" />
          </mxGeometry>
        </mxCell>
        <mxCell id="YiN0nY_S8RLQTl-dxrAz-48" value="Fetch data" style="edgeLabel;html=1;align=center;verticalAlign=middle;resizable=0;points=[];" vertex="1" connectable="0" parent="YiN0nY_S8RLQTl-dxrAz-47">
          <mxGeometry x="0.55" y="1" relative="1" as="geometry">
            <mxPoint x="1" y="22" as="offset" />
          </mxGeometry>
        </mxCell>
        <mxCell id="YiN0nY_S8RLQTl-dxrAz-49" value="" style="endArrow=none;html=1;rounded=0;" edge="1" parent="1">
          <mxGeometry width="50" height="50" relative="1" as="geometry">
            <mxPoint x="160" y="400" as="sourcePoint" />
            <mxPoint x="160" y="50" as="targetPoint" />
          </mxGeometry>
        </mxCell>
        <mxCell id="YiN0nY_S8RLQTl-dxrAz-50" value="" style="endArrow=none;html=1;rounded=0;" edge="1" parent="1">
          <mxGeometry width="50" height="50" relative="1" as="geometry">
            <mxPoint x="640" y="400" as="sourcePoint" />
            <mxPoint x="640" y="50" as="targetPoint" />
          </mxGeometry>
        </mxCell>
        <mxCell id="YiN0nY_S8RLQTl-dxrAz-51" value="" style="endArrow=none;html=1;rounded=0;" edge="1" parent="1">
          <mxGeometry width="50" height="50" relative="1" as="geometry">
            <mxPoint x="160" y="400" as="sourcePoint" />
            <mxPoint x="640" y="400" as="targetPoint" />
          </mxGeometry>
        </mxCell>
        <mxCell id="YiN0nY_S8RLQTl-dxrAz-52" value="" style="endArrow=none;html=1;rounded=0;" edge="1" parent="1">
          <mxGeometry width="50" height="50" relative="1" as="geometry">
            <mxPoint x="160" y="50" as="sourcePoint" />
            <mxPoint x="640" y="50" as="targetPoint" />
          </mxGeometry>
        </mxCell>
        <mxCell id="YiN0nY_S8RLQTl-dxrAz-53" value="Data&lt;br&gt;layer" style="text;html=1;strokeColor=none;fillColor=none;align=center;verticalAlign=middle;whiteSpace=wrap;rounded=0;direction=south;fontStyle=1;fontSize=12;" vertex="1" parent="1">
          <mxGeometry x="200" y="50" width="80" height="350" as="geometry" />
        </mxCell>
        <mxCell id="YiN0nY_S8RLQTl-dxrAz-54" value="" style="endArrow=open;endFill=1;endSize=12;html=1;rounded=0;entryX=0.099;entryY=1.002;entryDx=0;entryDy=0;entryPerimeter=0;exitX=0.101;exitY=-0.004;exitDx=0;exitDy=0;exitPerimeter=0;" edge="1" parent="1" source="YiN0nY_S8RLQTl-dxrAz-9" target="YiN0nY_S8RLQTl-dxrAz-8">
          <mxGeometry width="160" relative="1" as="geometry">
            <mxPoint x="341" y="200" as="sourcePoint" />
            <mxPoint x="340" y="120" as="targetPoint" />
            <Array as="points" />
          </mxGeometry>
        </mxCell>
        <mxCell id="YiN0nY_S8RLQTl-dxrAz-55" value="Initiate execute&lt;br&gt;DB transaction" style="edgeLabel;html=1;align=center;verticalAlign=middle;resizable=0;points=[];" vertex="1" connectable="0" parent="YiN0nY_S8RLQTl-dxrAz-54">
          <mxGeometry x="0.55" y="1" relative="1" as="geometry">
            <mxPoint x="1" y="22" as="offset" />
          </mxGeometry>
        </mxCell>
        <mxCell id="YiN0nY_S8RLQTl-dxrAz-56" value="" style="endArrow=open;endFill=1;endSize=12;html=1;rounded=0;exitX=0.897;exitY=1;exitDx=0;exitDy=0;exitPerimeter=0;entryX=0.899;entryY=0;entryDx=0;entryDy=0;entryPerimeter=0;" edge="1" parent="1" source="YiN0nY_S8RLQTl-dxrAz-8" target="YiN0nY_S8RLQTl-dxrAz-9">
          <mxGeometry width="160" relative="1" as="geometry">
            <mxPoint x="460" y="120" as="sourcePoint" />
            <mxPoint x="460" y="199" as="targetPoint" />
          </mxGeometry>
        </mxCell>
        <mxCell id="YiN0nY_S8RLQTl-dxrAz-57" value="Provide data" style="edgeLabel;html=1;align=center;verticalAlign=middle;resizable=0;points=[];" vertex="1" connectable="0" parent="YiN0nY_S8RLQTl-dxrAz-56">
          <mxGeometry x="0.3802" relative="1" as="geometry">
            <mxPoint y="-15" as="offset" />
          </mxGeometry>
        </mxCell>
        <mxCell id="YiN0nY_S8RLQTl-dxrAz-58" value="View data and react to the user actions" style="text;html=1;strokeColor=none;fillColor=none;align=left;verticalAlign=middle;whiteSpace=wrap;rounded=0;" vertex="1" parent="1">
          <mxGeometry x="500" y="850" width="140" height="50" as="geometry" />
        </mxCell>
        <mxCell id="YiN0nY_S8RLQTl-dxrAz-59" value="Execute buisness rules" style="text;html=1;strokeColor=none;fillColor=none;align=left;verticalAlign=middle;whiteSpace=wrap;rounded=0;" vertex="1" parent="1">
          <mxGeometry x="500" y="590" width="140" height="50" as="geometry" />
        </mxCell>
        <mxCell id="YiN0nY_S8RLQTl-dxrAz-60" value="Map entities to the UI models. Save UI-data" style="text;html=1;strokeColor=none;fillColor=none;align=left;verticalAlign=middle;whiteSpace=wrap;rounded=0;" vertex="1" parent="1">
          <mxGeometry x="500" y="720" width="140" height="50" as="geometry" />
        </mxCell>
        <mxCell id="YiN0nY_S8RLQTl-dxrAz-61" value="Manage data from the local data sources" style="text;html=1;strokeColor=none;fillColor=none;align=left;verticalAlign=middle;whiteSpace=wrap;rounded=0;" vertex="1" parent="1">
          <mxGeometry x="500" y="200" width="140" height="50" as="geometry" />
        </mxCell>
        <mxCell id="YiN0nY_S8RLQTl-dxrAz-62" value="Repository interface" style="text;html=1;strokeColor=none;fillColor=none;align=left;verticalAlign=middle;whiteSpace=wrap;rounded=0;" vertex="1" parent="1">
          <mxGeometry x="510" y="470" width="140" height="50" as="geometry" />
        </mxCell>
        <mxCell id="YiN0nY_S8RLQTl-dxrAz-63" value="Implementation of the repository. Manage data from the different data sources. Map data models to the buisness entites&amp;nbsp;" style="text;html=1;strokeColor=none;fillColor=none;align=left;verticalAlign=middle;whiteSpace=wrap;rounded=0;" vertex="1" parent="1">
          <mxGeometry x="500" y="320" width="140" height="80" as="geometry" />
        </mxCell>
        <mxCell id="YiN0nY_S8RLQTl-dxrAz-64" value="Persist data. Execute DB transactions" style="text;html=1;strokeColor=none;fillColor=none;align=left;verticalAlign=middle;whiteSpace=wrap;rounded=0;" vertex="1" parent="1">
          <mxGeometry x="500" y="70" width="140" height="50" as="geometry" />
        </mxCell>
        <mxCell id="YiN0nY_S8RLQTl-dxrAz-65" value="Car" style="html=1;whiteSpace=wrap;" vertex="1" parent="1">
          <mxGeometry x="180" y="590" width="120" height="50" as="geometry" />
        </mxCell>
        <mxCell id="YiN0nY_S8RLQTl-dxrAz-66" value="CarUIModel" style="html=1;whiteSpace=wrap;" vertex="1" parent="1">
          <mxGeometry x="180" y="720" width="120" height="50" as="geometry" />
        </mxCell>
        <mxCell id="YiN0nY_S8RLQTl-dxrAz-67" value="CarEntity" style="html=1;whiteSpace=wrap;" vertex="1" parent="1">
          <mxGeometry x="180" y="70" width="120" height="50" as="geometry" />
        </mxCell>
      </root>
    </mxGraphModel>
  </diagram>
</mxfile>
